<svg width="100" height="150" xmlns="http://www.w3.org/2000/svg">
 <g id="Layer_1">
  <title>Layer 1</title>
  <path fill="#fff" stroke="#000" d="m-238.11522,88.2819l0,-0.07153c0,-0.00925 -0.00752,-0.01674 -0.01676,-0.01674c-0.00926,0 -0.01675,0.00749 -0.01675,0.01674l0,0.07097c-0.01053,0.00577 -0.01768,0.01696 -0.01768,0.02981c0,0.01876 0.01521,0.03397 0.03397,0.03397c0.01877,0 0.03397,-0.01521 0.03397,-0.03397c0.00001,-0.01247 -0.00673,-0.02334 -0.01674,-0.02924l-0.00001,-0.00001zm-0.01722,0.05763c-0.01565,0 -0.02838,-0.01274 -0.02838,-0.0284c0,-0.01036 0.00566,-0.0199 0.01477,-0.0249l0.00291,-0.00158l0,-0.07429c0,-0.00616 0.00502,-0.01116 0.01118,-0.01116c0.00616,0 0.01116,0.005 0.01116,0.01116l0,0.07471l0.00274,0.00162c0.00878,0.00518 0.01403,0.01431 0.01403,0.02444c-0.00001,0.01566 -0.01275,0.0284 -0.02841,0.0284zm0.01154,-0.04802l-0.0055,-0.00324l0,-0.0488l-0.01117,0l0,0.04848l-0.00581,0.00318c-0.00732,0.00403 -0.01188,0.01167 -0.01188,0.02c0,0.01257 0.01024,0.02281 0.0228,0.02281c0.01258,0 0.0228,-0.01024 0.0228,-0.02281c0.00001,-0.00801 -0.00431,-0.01553 -0.01126,-0.01962l0.00002,0z" id="svg_2"/>
  <path fill="#fff" stroke="#000" d="m-264.34704,129.89099l0,-0.07153c0,-0.00925 -0.00752,-0.01674 -0.01676,-0.01674c-0.00926,0 -0.01675,0.00749 -0.01675,0.01674l0,0.07097c-0.01053,0.00577 -0.01768,0.01696 -0.01768,0.02981c0,0.01876 0.01521,0.03397 0.03397,0.03397c0.01877,0 0.03397,-0.01521 0.03397,-0.03397c0.00001,-0.01247 -0.00673,-0.02334 -0.01674,-0.02924l-0.00001,-0.00001zm-0.01722,0.05763c-0.01565,0 -0.02838,-0.01274 -0.02838,-0.0284c0,-0.01036 0.00566,-0.0199 0.01477,-0.0249l0.00291,-0.00158l0,-0.07429c0,-0.00616 0.00502,-0.01116 0.01118,-0.01116c0.00616,0 0.01116,0.005 0.01116,0.01116l0,0.07471l0.00274,0.00162c0.00878,0.00518 0.01403,0.01431 0.01403,0.02444c-0.00001,0.01566 -0.01275,0.0284 -0.02841,0.0284zm0.01154,-0.04802l-0.0055,-0.00324l0,-0.0488l-0.01117,0l0,0.04848l-0.00581,0.00318c-0.00732,0.00403 -0.01188,0.01167 -0.01188,0.02c0,0.01257 0.01024,0.02281 0.0228,0.02281c0.01258,0 0.0228,-0.01024 0.0228,-0.02281c0.00001,-0.00801 -0.00431,-0.01553 -0.01126,-0.01962l0.00002,0z" id="svg_3"/>
  <path fill="#fff" stroke="#000" d="m-187.03273,300.97536l0,-58.81325c0,-7.60552 -7.24596,-13.76393 -16.14924,-13.76393c-8.92255,0 -16.13961,6.15841 -16.13961,13.76393l0,58.34869c-10.14627,4.7442 -17.03572,13.9407 -17.03572,24.5062c0,15.42481 14.65573,27.92663 32.72727,27.92663c18.08118,0 32.72727,-12.50182 32.72727,-27.92663c0.00482,-10.24895 -6.48475,-19.19057 -16.12997,-24.04165l0,0.00001zm-16.59248,47.38442c-15.07487,0 -27.34579,-10.47506 -27.34579,-23.35099c0,-8.51818 5.45374,-16.36214 14.23176,-20.46911l2.79914,-1.2991l0,-61.08257c0,-5.06075 4.83225,-9.17184 10.77258,-9.17184c5.9307,0 10.75331,4.11109 10.75331,9.17184l0,61.4279l2.64015,1.33199c8.46004,4.25909 13.51873,11.76183 13.51873,20.09089c-0.00964,12.87593 -12.28537,23.35099 -27.36988,23.35099zm11.11947,-39.4829l-5.29475,-2.65987l0,-40.12012l-10.75813,0l0,39.85701l-5.59346,2.61054c-7.05325,3.30943 -11.44226,9.59528 -11.44226,16.44436c0,10.33528 9.86202,18.75068 21.96914,18.75068c12.11675,0 21.96914,-8.4154 21.96914,-18.75068c0.00964,-6.58597 -4.14812,-12.76493 -10.84967,-16.13192l-0.00001,0z" id="svg_4"/>
  <path fill="#fff" stroke="#000" d="m623.91662,331.60463l0,-0.07153c0,-0.00925 -0.00752,-0.01674 -0.01676,-0.01674c-0.00926,0 -0.01675,0.00749 -0.01675,0.01674l0,0.07097c-0.01053,0.00577 -0.01768,0.01696 -0.01768,0.02981c0,0.01876 0.01521,0.03397 0.03397,0.03397c0.01877,0 0.03397,-0.01521 0.03397,-0.03397c0.00001,-0.01247 -0.00673,-0.02334 -0.01674,-0.02924l-0.00001,-0.00001zm-0.01722,0.05763c-0.01565,0 -0.02838,-0.01274 -0.02838,-0.0284c0,-0.01036 0.00566,-0.0199 0.01477,-0.0249l0.00291,-0.00158l0,-0.07429c0,-0.00616 0.00502,-0.01116 0.01118,-0.01116c0.00616,0 0.01116,0.005 0.01116,0.01116l0,0.07471l0.00274,0.00162c0.00878,0.00518 0.01403,0.01431 0.01403,0.02444c-0.00001,0.01566 -0.01275,0.0284 -0.02841,0.0284zm0.01154,-0.04802l-0.0055,-0.00324l0,-0.0488l-0.01117,0l0,0.04848l-0.00581,0.00318c-0.00732,0.00403 -0.01188,0.01167 -0.01188,0.02c0,0.01257 0.01024,0.02281 0.0228,0.02281c0.01258,0 0.0228,-0.01024 0.0228,-0.02281c0.00001,-0.00801 -0.00431,-0.01553 -0.01126,-0.01962l0.00002,0z" id="svg_5"/>
  <path transform="rotate(180 50 75)" stroke="#000" stroke-width="3" id="svg_7" d="m96.69631,31.42448l-43.58076,43.57814l43.58076,43.5781l-24.90595,24.91929l-68.48666,-68.49739l68.48666,-68.50262l24.90595,24.92448z" fill="none"/>
  <path id="svg_8" d="m64.375,67.1875" opacity="NaN" stroke-width="3" stroke="#000" fill="none"/>
 </g>

</svg>