<svg xmlns="http://www.w3.org/2000/svg" version="1.1" xmlns:xlink="http://www.w3.org/1999/xlink" xmlns:svgjs="http://svgjs.com/svgjs" width="512" height="512" x="0" y="0" viewBox="0 0 682.66669 682.66669" style="enable-background:new 0 0 512 512" xml:space="preserve" class=""><g><defs id="defs3340"><clipPath clipPathUnits="userSpaceOnUse" id="clipPath3350"><path d="M 0,512 H 512 V 0 H 0 Z" id="path3348" fill="#000000" data-original="#000000"></path></clipPath></defs><g id="g3342" transform="matrix(1.3333333,0,0,-1.3333333,0,682.66667)"><g id="g3344"><g id="g3346" clip-path="url(#clipPath3350)"><g id="g3352" transform="translate(386.1426,239.2705)"><path d="m 0,0 c 0,66.002 -53.505,119.507 -119.506,119.507 -47.264,0 -88.115,-27.441 -107.504,-67.256 -10.995,4.813 -23.133,7.503 -35.904,7.503 -49.501,0 -89.629,-40.129 -89.629,-89.63 0,-49.501 40.128,-89.63 89.629,-89.63 H 0 c 33.001,0 59.754,26.752 59.754,59.753 C 59.754,-26.752 33.001,0 0,0" style="fill-opacity:1;fill-rule:nonzero;stroke:none" id="path3354" fill="#8dc9ff" data-original="#8dc9ff" class=""></path></g><g id="g3356" transform="translate(419.1934,358.7803)"><path d="M 0,0 C 0,-31.274 -17.09,-58.556 -42.435,-73.026 -60.554,-30.123 -103.038,0 -152.555,0 c -5.248,0 -10.404,-0.336 -15.468,-0.998 -0.011,0.336 -0.011,0.662 -0.011,0.998 0,46.398 37.624,84.022 84.022,84.022 C -37.614,84.022 0,46.398 0,0" style="fill-opacity:1;fill-rule:nonzero;stroke:none" id="path3358" fill="#ffce62" data-original="#ffce62"></path></g><g id="g3360" transform="translate(482,10)"><path d="m 0,0 h -146.076 c -11.046,0 -20,8.954 -20,20 0,11.046 8.954,20 20,20 H 0 C 11.046,40 20,31.046 20,20 20,8.954 11.046,0 0,0" style="fill-opacity:1;fill-rule:nonzero;stroke:none" id="path3362" fill="#cfd4e0" data-original="#cfd4e0" class=""></path></g><g id="g3364" transform="translate(255.9238,50)"><path d="m 0,0 h -79.848 c 11.046,0 20,8.954 20,20 0,11.046 -8.954,20 -20,20 h -146.076 c -11.046,0 -20,-8.954 -20,-20 0,-11.046 8.954,-20 20,-20 h 79.848 c -11.045,0 -20,-8.954 -20,-20 0,-11.046 8.955,-20 20,-20 H 0 c 11.046,0 20,8.954 20,20 C 20,-8.954 11.046,0 0,0" style="fill-opacity:1;fill-rule:nonzero;stroke:none" id="path3366" fill="#cfd4e0" data-original="#cfd4e0" class=""></path></g><g id="g3368" transform="translate(346.0762,99.7646)"><path d="m 0,0 h -90 c -11.046,0 -20,8.954 -20,20 0,11.046 8.954,20 20,20 H 0 C 11.046,40 20,31.046 20,20 20,8.954 11.046,0 0,0" style="fill-opacity:1;fill-rule:nonzero;stroke:none" id="path3370" fill="#cfd4e0" data-original="#cfd4e0" class=""></path></g><g id="g3372" transform="translate(446.0762,99.7646)"><path d="m 0,0 h -20 c -11.046,0 -20,8.954 -20,20 0,11.046 8.954,20 20,20 H 0 C 11.046,40 20,31.046 20,20 20,8.954 11.046,0 0,0" style="fill-opacity:1;fill-rule:nonzero;stroke:none" id="path3374" fill="#cfd4e0" data-original="#cfd4e0" class=""></path></g><g id="g3376" transform="translate(366.0801,119.7598)"><path d="m 0,0 h 20.06 c 7.11,0 13.93,1.24 20.26,3.53" style="stroke-width:20;stroke-linecap:round;stroke-linejoin:round;stroke-miterlimit:10;stroke-dasharray:none;stroke-opacity:1" id="path3378" fill="none" stroke="#000000" stroke-width="20" stroke-linecap="round" stroke-linejoin="round" stroke-miterlimit="10" stroke-dasharray="none" stroke-opacity="" data-original="#000000" class=""></path></g><g id="g3380" transform="translate(236.0801,119.7598)"><path d="m 0,0 h -112.85 c -49.5,0 -89.63,40.13 -89.63,89.63 0,49.511 40.13,89.63 89.63,89.63 12.77,0 24.91,-2.68 35.9,-7.5 17.24,35.4 51.44,61.02 92.04,66.261 51.98,7.54 105.8,-23.441 125.599,-72.031 6.031,-14.29 9.371,-30 9.371,-46.48 33,0 59.76,-26.75 59.76,-59.75 0,-15.26 -5.73,-29.19 -15.15,-39.76" style="stroke-width:20;stroke-linecap:round;stroke-linejoin:round;stroke-miterlimit:10;stroke-dasharray:none;stroke-opacity:1" id="path3382" fill="none" stroke="#000000" stroke-width="20" stroke-linecap="round" stroke-linejoin="round" stroke-miterlimit="10" stroke-dasharray="none" stroke-opacity="" data-original="#000000" class=""></path></g><g id="g3384" transform="translate(159.1328,291.5215)"><path d="M 0,0 C 22.584,-9.901 40.303,-28.844 48.576,-52.249" style="stroke-width:20;stroke-linecap:round;stroke-linejoin:round;stroke-miterlimit:10;stroke-dasharray:none;stroke-opacity:1" id="path3386" fill="none" stroke="#000000" stroke-width="20" stroke-linecap="round" stroke-linejoin="round" stroke-miterlimit="10" stroke-dasharray="none" stroke-opacity="" data-original="#000000" class=""></path></g><g id="g3388" transform="translate(353.7402,229.7305)"><path d="M 0,0 C 9.335,6.036 20.459,9.54 32.402,9.54" style="stroke-width:20;stroke-linecap:round;stroke-linejoin:round;stroke-miterlimit:10;stroke-dasharray:none;stroke-opacity:1" id="path3390" fill="none" stroke="#000000" stroke-width="20" stroke-linecap="round" stroke-linejoin="round" stroke-miterlimit="10" stroke-dasharray="none" stroke-opacity="" data-original="#000000" class=""></path></g><g id="g3392" transform="translate(300.8281,478.7549)"><path d="M 0,0 -6.654,23.245" style="stroke-width:20;stroke-linecap:round;stroke-linejoin:round;stroke-miterlimit:10;stroke-dasharray:none;stroke-opacity:1" id="path3394" fill="none" stroke="#000000" stroke-width="20" stroke-linecap="round" stroke-linejoin="round" stroke-miterlimit="10" stroke-dasharray="none" stroke-opacity="" data-original="#000000" class=""></path></g><g id="g3396" transform="translate(226.0898,419.3135)"><path d="M 0,0 -21.176,11.749" style="stroke-width:20;stroke-linecap:round;stroke-linejoin:round;stroke-miterlimit:10;stroke-dasharray:none;stroke-opacity:1" id="path3398" fill="none" stroke="#000000" stroke-width="20" stroke-linecap="round" stroke-linejoin="round" stroke-miterlimit="10" stroke-dasharray="none" stroke-opacity="" data-original="#000000" class=""></path></g><g id="g3400" transform="translate(465.4482,286.498)"><path d="M 0,0 -21.176,11.75" style="stroke-width:20;stroke-linecap:round;stroke-linejoin:round;stroke-miterlimit:10;stroke-dasharray:none;stroke-opacity:1" id="path3402" fill="none" stroke="#000000" stroke-width="20" stroke-linecap="round" stroke-linejoin="round" stroke-miterlimit="10" stroke-dasharray="none" stroke-opacity="" data-original="#000000" class=""></path></g><g id="g3404" transform="translate(478.4004,399.7773)"><path d="M 0,0 -23.244,-6.654" style="stroke-width:20;stroke-linecap:round;stroke-linejoin:round;stroke-miterlimit:10;stroke-dasharray:none;stroke-opacity:1" id="path3406" fill="none" stroke="#000000" stroke-width="20" stroke-linecap="round" stroke-linejoin="round" stroke-miterlimit="10" stroke-dasharray="none" stroke-opacity="" data-original="#000000" class=""></path></g><g id="g3408" transform="translate(407.4639,489.0479)"><path d="M 0,0 -11.75,-21.177" style="stroke-width:20;stroke-linecap:round;stroke-linejoin:round;stroke-miterlimit:10;stroke-dasharray:none;stroke-opacity:1" id="path3410" fill="none" stroke="#000000" stroke-width="20" stroke-linecap="round" stroke-linejoin="round" stroke-miterlimit="10" stroke-dasharray="none" stroke-opacity="" data-original="#000000" class=""></path></g><g id="g3412" transform="translate(251.1699,357.7822)"><path d="m 0,0 c -0.011,0.336 -0.011,0.662 -0.011,0.998 0,46.398 37.624,84.023 84.023,84.023 46.397,0 84.011,-37.625 84.011,-84.023 0,-31.274 -17.089,-58.556 -42.434,-73.026" style="stroke-width:20;stroke-linecap:round;stroke-linejoin:round;stroke-miterlimit:10;stroke-dasharray:none;stroke-opacity:1" id="path3414" fill="none" stroke="#000000" stroke-width="20" stroke-linecap="round" stroke-linejoin="round" stroke-miterlimit="10" stroke-dasharray="none" stroke-opacity="" data-original="#000000" class=""></path></g><g id="g3416" transform="translate(476.0762,50)"><path d="m 0,0 h 5.924 c 11.046,0 20,-8.954 20,-20 0,-11.046 -8.954,-20 -20,-20 h -146.076 c -11.046,0 -20,8.954 -20,20 0,11.046 8.954,20 20,20 H -80" style="stroke-width:20;stroke-linecap:round;stroke-linejoin:round;stroke-miterlimit:10;stroke-dasharray:none;stroke-opacity:1" id="path3418" fill="none" stroke="#000000" stroke-width="20" stroke-linecap="round" stroke-linejoin="round" stroke-miterlimit="10" stroke-dasharray="none" stroke-opacity="" data-original="#000000" class=""></path></g><g id="g3420" transform="translate(446.0762,50)"><path d="m 0,0 c 0,-5.522 -4.478,-10 -10,-10 -5.523,0 -10,4.478 -10,10 0,5.522 4.477,10 10,10 C -4.478,10 0,5.522 0,0" style="fill-opacity:1;fill-rule:nonzero;stroke:none" id="path3422" fill="#000000" data-original="#000000"></path></g><g id="g3424" transform="translate(255.9238,50)"><path d="m 0,0 h -79.848 c 11.046,0 20,8.954 20,20 0,11.046 -8.954,20 -20,20 h -146.076 c -11.046,0 -20,-8.954 -20,-20 0,-11.046 8.954,-20 20,-20 h 79.848 c -11.045,0 -20,-8.954 -20,-20 0,-11.046 8.955,-20 20,-20 H 0 c 11.046,0 20,8.954 20,20 C 20,-8.954 11.046,0 0,0 Z" style="stroke-width:20;stroke-linecap:round;stroke-linejoin:round;stroke-miterlimit:10;stroke-dasharray:none;stroke-opacity:1" id="path3426" fill="none" stroke="#000000" stroke-width="20" stroke-linecap="round" stroke-linejoin="round" stroke-miterlimit="10" stroke-dasharray="none" stroke-opacity="" data-original="#000000" class=""></path></g><g id="g3428" transform="translate(346.0762,99.7646)"><path d="m 0,0 h -90 c -11.046,0 -20,8.954 -20,20 0,11.046 8.954,20 20,20 H 0 C 11.046,40 20,31.046 20,20 20,8.954 11.046,0 0,0 Z" style="stroke-width:20;stroke-linecap:round;stroke-linejoin:round;stroke-miterlimit:10;stroke-dasharray:none;stroke-opacity:1" id="path3430" fill="none" stroke="#000000" stroke-width="20" stroke-linecap="round" stroke-linejoin="round" stroke-miterlimit="10" stroke-dasharray="none" stroke-opacity="" data-original="#000000" class=""></path></g><g id="g3432" transform="translate(446.0762,99.7646)"><path d="m 0,0 h -20 c -11.046,0 -20,8.954 -20,20 0,11.046 8.954,20 20,20 H 0 C 11.046,40 20,31.046 20,20 20,8.954 11.046,0 0,0 Z" style="stroke-width:20;stroke-linecap:round;stroke-linejoin:round;stroke-miterlimit:10;stroke-dasharray:none;stroke-opacity:1" id="path3434" fill="none" stroke="#000000" stroke-width="20" stroke-linecap="round" stroke-linejoin="round" stroke-miterlimit="10" stroke-dasharray="none" stroke-opacity="" data-original="#000000" class=""></path></g></g></g></g></g></svg>