<svg width="800" height="600" xmlns="http://www.w3.org/2000/svg">

 <g>
  <title>Layer 1</title>
  <path d="m191,300c0,-4 2.38892,-18.16528 7,-34c4.42067,-15.18083 12.40526,-31.54663 27,-45c13.67686,-12.60727 33.9213,-18.99863 53,-20c20.97113,-1.10071 46.81439,4.27342 72,23c27.26074,20.2695 50.54221,50.89935 80,72c27.74796,19.87589 63.69055,35.45313 98,42c33.75659,6.44138 63.51654,8.52628 89,2c22.67755,-5.80768 41.96106,-18.11368 50,-34c8.43494,-16.66888 6.87067,-35.90112 -3,-54c-11.02277,-20.21133 -29.89349,-36.30998 -51,-45c-20.19556,-8.31499 -43.69812,-11.58931 -68,-5c-24.20587,6.56328 -49.59451,26.56389 -80,48c-30.60257,21.57507 -58.78677,39.43378 -91,55c-29.80814,14.40402 -58.92346,25.24048 -90,35c-35.9137,11.27859 -69.85736,19.15961 -99,20c-22.01357,0.6348 -36.45049,-5.25244 -39,-18c-4.11844,-20.59219 9.22316,-50.86545 25,-81c13.52269,-25.82899 33.61107,-51.36287 62,-69c24.3237,-15.11153 51.04782,-18.66479 80,-17c26.12933,1.50247 53.38461,15.46103 78,39c26.59418,25.43126 53.70453,56.39395 82,90c25.65015,30.46423 43.99799,55.12042 64,72c15.28473,12.89871 33.82355,19.49539 53,21c17.94482,1.40799 36.97406,-4.0694 61,-13c18.97968,-7.05487 33.86249,-10.90161 42,-20c8.35315,-9.33945 9.49982,-26.98029 10,-46c0.63092,-23.9917 0,-44 0,-57l0,-11l0,-6" id="svg_1" stroke="#000" fill="none"/>
 </g>
</svg>